<?xml version="1.0" standalone="no"?>
<!DOCTYPE svg PUBLIC "-//W3C//DTD SVG 20010904//EN"
 "http://www.w3.org/TR/2001/REC-SVG-20010904/DTD/svg10.dtd">
<svg version="1.0" xmlns="http://www.w3.org/2000/svg"
 width="1076.000000pt" height="1280.000000pt" viewBox="0 0 1076.000000 1280.000000"
 preserveAspectRatio="xMidYMid meet">
<metadata>
Created by potrace 1.15, written by Peter Selinger 2001-2017
</metadata>
<g transform="translate(0.000000,1280.000000) scale(0.100000,-0.100000)"
fill="#000000" stroke="none">
<path d="M1603 12790 c-215 -27 -415 -89 -618 -190 -185 -92 -303 -178 -455
-330 -151 -151 -237 -269 -330 -454 -145 -287 -210 -582 -197 -891 8 -177 36
-330 92 -501 127 -386 382 -719 717 -938 165 -108 413 -214 581 -248 53 -11
-38 -14 -658 -18 l-720 -5 -3 -1814 c-1 -1332 1 -1817 9 -1827 10 -12 175 -14
966 -14 940 0 954 0 943 -19 -14 -26 -14 -1365 0 -1391 8 -15 -115 -230 -687
-1204 l-697 -1186 -208 0 -208 0 0 -880 0 -880 3765 0 3765 0 0 504 0 504 23
15 22 15 -23 44 c-22 42 -22 51 -22 361 l0 317 -187 0 -188 0 -698 1187 c-660
1124 -697 1188 -687 1216 13 38 14 1319 1 1365 l-10 32 1059 0 c959 0 1060 2
1075 16 14 14 15 46 13 250 -2 129 0 234 3 234 3 0 18 -13 33 -29 15 -16 56
-42 89 -58 58 -26 71 -28 187 -28 115 0 130 2 182 27 73 34 142 104 176 176
22 48 27 75 32 177 l5 120 263 3 262 2 0 100 c0 55 2 100 5 100 3 0 45 -26 93
-58 273 -183 1375 -883 1380 -877 9 8 8 3483 -1 3491 -5 5 -1081 -685 -1377
-883 l-95 -63 -3 60 -3 60 -264 0 -263 0 -4 168 c-3 146 -6 173 -25 214 -70
152 -203 225 -393 216 -108 -5 -178 -30 -242 -87 -20 -17 -37 -31 -39 -31 -2
0 -3 72 -1 160 2 101 -1 167 -8 180 -11 20 -19 20 -698 21 l-687 1 90 23 c684
179 1185 708 1326 1401 30 150 38 445 15 601 -122 831 -765 1451 -1598 1542
-605 67 -1244 -211 -1609 -699 -408 -546 -481 -1266 -190 -1875 99 -208 222
-378 384 -531 133 -126 258 -212 432 -298 161 -80 221 -103 367 -141 l93 -24
-1910 0 -1910 0 110 28 c641 165 1128 658 1295 1309 35 139 50 269 50 437 0
294 -53 525 -180 791 -254 528 -739 890 -1330 991 -104 17 -380 25 -477 13z
m1760 -9472 c4 -425 7 -950 7 -1165 l0 -393 -781 0 -781 0 20 33 c11 17 313
532 672 1142 359 611 658 1120 666 1133 13 20 22 22 103 22 l88 0 6 -772z
m1974 -393 l682 -1160 -776 -3 c-427 -1 -777 -1 -779 0 -1 2 -5 526 -9 1166
l-8 1163 104 -3 104 -3 682 -1160z"/>
</g>
</svg>
