<?xml version="1.0" standalone="no"?>
<!DOCTYPE svg PUBLIC "-//W3C//DTD SVG 20010904//EN"
 "http://www.w3.org/TR/2001/REC-SVG-20010904/DTD/svg10.dtd">
<svg version="1.0" xmlns="http://www.w3.org/2000/svg"
 width="1280.000000pt" height="941.000000pt" viewBox="0 0 1280.000000 941.000000"
 preserveAspectRatio="xMidYMid meet">
<metadata>
Created by potrace 1.15, written by Peter Selinger 2001-2017
</metadata>
<g transform="translate(0.000000,941.000000) scale(0.100000,-0.100000)"
fill="#000000" stroke="none">
<path d="M8261 9392 c-6 -11 -11 -32 -11 -45 0 -14 -9 -35 -19 -48 l-20 -24
-43 23 c-26 14 -44 19 -46 12 -2 -6 -19 -39 -38 -75 l-34 -65 22 -19 c13 -11
34 -28 47 -39 l25 -19 -70 -99 c-39 -55 -96 -135 -127 -180 -31 -45 -66 -87
-77 -95 -17 -12 -25 -35 -40 -134 -10 -66 -32 -163 -50 -215 -42 -126 -50
-229 -23 -291 11 -24 39 -65 62 -91 41 -46 41 -47 41 -126 l0 -79 -101 -7
c-108 -8 -149 -6 -554 24 -326 24 -606 37 -1145 50 -234 6 -567 15 -740 19
l-315 9 -59 31 c-51 27 -67 31 -130 29 -48 -1 -77 -6 -89 -17 -12 -10 -49 -18
-104 -22 -74 -6 -97 -13 -188 -57 -94 -46 -104 -49 -108 -31 -4 14 -14 19 -39
19 -66 0 -110 -12 -116 -32 -2 -10 -10 -18 -18 -18 -26 0 -39 -46 -45 -165 -3
-66 -12 -150 -19 -187 -17 -84 -4 -133 52 -194 l40 -43 -86 -99 c-48 -55 -98
-104 -112 -111 -14 -6 -76 -11 -142 -11 -186 0 -256 -26 -363 -132 -51 -51
-89 -133 -89 -193 0 -30 -3 -35 -23 -35 -22 0 -23 3 -20 53 16 237 20 324 13
342 -15 40 -133 187 -159 198 -16 7 -97 11 -211 12 -173 0 -188 -2 -237 -23
-60 -28 -86 -53 -109 -107 -20 -49 -27 -259 -44 -1400 -15 -945 -13 -1146 13
-1193 73 -133 269 -235 419 -218 37 4 60 0 100 -19 58 -26 155 -45 236 -45 50
0 52 -1 52 -27 -1 -33 -35 -192 -44 -200 -3 -4 -62 -5 -130 -4 -93 2 -134 -1
-158 -12 -18 -9 -81 -18 -142 -21 -64 -4 -131 -15 -165 -26 -64 -22 -159 -40
-208 -40 -50 0 -112 -29 -128 -60 -9 -17 -42 -43 -82 -66 -172 -96 -265 -237
-333 -509 -34 -131 -47 -221 -55 -370 -9 -175 -34 -751 -41 -972 -4 -110 -9
-205 -13 -210 -3 -5 -80 -29 -171 -53 -539 -141 -699 -178 -815 -187 -65 -5
-72 -4 -98 21 -15 14 -30 26 -32 26 -2 0 -181 -36 -397 -80 -216 -44 -396 -80
-400 -80 -5 0 -8 -137 -8 -305 0 -200 3 -305 10 -305 18 0 223 46 575 129 370
88 362 84 386 163 11 35 15 37 78 52 36 9 190 45 342 81 153 36 317 77 365 91
49 14 107 26 129 27 l40 2 7 -65 c14 -133 28 -453 29 -675 1 -127 4 -297 8
-380 l6 -150 49 -3 49 -3 -7 128 c-14 299 -27 831 -24 1002 l3 185 30 8 c79
23 499 128 511 128 12 0 14 -101 10 -697 -3 -384 -8 -710 -12 -726 -6 -25 -4
-27 25 -27 l31 0 0 273 c0 454 20 1170 33 1183 7 7 126 38 264 69 246 57 254
58 290 42 103 -42 180 -59 244 -52 63 6 65 6 119 -34 56 -43 116 -66 144 -55
16 6 22 32 29 131 4 55 2 64 -19 84 -27 25 -32 70 -10 88 16 13 280 78 696
171 466 104 679 158 779 199 53 22 145 60 205 85 59 25 112 46 116 46 4 0 13
-14 20 -30 20 -47 42 -54 97 -30 l47 21 31 -23 c22 -17 43 -23 82 -23 46 0 57
4 85 32 24 25 33 44 38 80 5 46 8 49 55 74 32 16 49 32 49 42 -3 26 13 20 59
-23 l42 -39 -24 -43 c-73 -131 -97 -201 -112 -318 -19 -164 32 -391 115 -513
96 -141 98 -160 19 -182 -147 -41 -137 -35 -143 -84 -5 -42 -7 -45 -45 -55
-38 -11 -40 -14 -57 -76 -32 -121 -27 -130 69 -130 39 0 54 -4 51 -12 -3 -8
-29 -14 -71 -16 l-67 -3 0 -36 c0 -51 35 -117 81 -154 29 -23 39 -38 39 -59 0
-19 7 -33 19 -40 16 -8 18 -14 9 -38 -9 -24 -5 -38 31 -109 22 -46 41 -87 41
-91 0 -5 -26 -12 -57 -16 -35 -4 -77 -18 -110 -37 -53 -30 -55 -31 -147 -24
-154 12 -160 8 -190 -120 -7 -33 -21 -77 -30 -99 -9 -21 -16 -42 -16 -47 0 -5
580 -9 1346 -9 740 0 1344 3 1342 8 -25 56 -104 201 -116 215 -10 12 -30 17
-64 17 l-48 0 0 48 c0 86 0 86 -209 78 -120 -4 -188 -3 -201 4 -19 10 -19 12
-3 53 9 23 28 55 41 72 l25 30 -5 305 c-5 358 0 339 -120 426 -43 31 -78 63
-78 71 0 8 14 31 30 52 61 76 147 318 157 440 7 99 -16 222 -68 358 -21 57
-39 112 -39 123 0 34 57 86 178 161 213 132 242 151 270 184 28 31 29 38 34
159 3 70 8 129 11 132 9 9 50 9 428 0 207 -5 386 -5 398 -1 34 11 61 78 61
155 0 36 -8 115 -17 176 l-17 112 -49 11 c-27 6 -64 11 -83 11 -36 0 -39 5
-28 58 4 20 14 34 28 38 55 16 107 94 129 190 12 53 16 58 82 103 84 57 141
136 178 245 14 42 40 94 56 115 55 70 38 113 -60 154 -43 17 -99 83 -99 114 0
13 9 28 20 35 15 10 20 24 20 55 0 54 8 73 30 73 26 0 75 -44 94 -84 14 -30
23 -36 60 -41 51 -8 66 -2 66 26 0 23 -2 23 45 3 42 -17 85 -12 85 11 0 8 5
15 10 15 6 0 10 -4 10 -8 0 -4 32 -57 71 -118 66 -100 71 -113 70 -159 -1 -49
1 -51 62 -110 109 -103 302 -189 493 -219 129 -20 606 -50 664 -42 186 26 227
21 283 -35 22 -21 57 -44 77 -49 50 -14 140 3 216 40 35 16 72 30 84 30 35 0
75 26 130 87 29 31 71 66 93 76 23 10 61 34 85 54 l44 36 286 -7 c186 -5 303
-4 332 3 53 12 95 53 109 108 11 45 46 1340 39 1467 -3 57 -9 91 -19 100 -14
13 -409 37 -613 36 -95 0 -121 -10 -194 -72 -27 -23 -42 -28 -87 -28 -30 0
-55 -4 -55 -10 0 -16 -60 -11 -128 10 -55 17 -92 20 -260 20 -109 0 -213 -5
-232 -11 -23 -6 -46 -25 -65 -51 -32 -44 -45 -54 -86 -62 -14 -3 -38 -17 -54
-32 -28 -26 -29 -26 -154 -21 -102 4 -140 9 -200 31 -41 14 -82 33 -92 42 -9
8 -40 21 -69 29 -61 16 -77 10 -106 -44 -23 -42 -18 -42 -231 -11 -155 24
-254 25 -291 6 -15 -8 -42 -30 -60 -50 -25 -28 -38 -35 -56 -30 -14 3 -27 -1
-35 -10 -10 -12 -32 -16 -82 -16 -37 0 -71 -4 -74 -10 -7 -11 -145 -13 -160
-2 -6 4 -10 89 -11 217 0 185 -3 218 -21 273 -16 48 -18 64 -9 68 14 5 162 -2
216 -11 19 -3 67 -10 105 -16 39 -5 93 -15 120 -21 46 -9 57 -8 114 17 58 24
72 26 135 20 39 -4 96 -17 126 -30 165 -68 318 -56 490 38 39 22 90 40 128 46
34 5 67 13 74 17 7 4 50 11 96 14 91 7 115 21 127 73 6 21 4 27 -10 27 -12 0
-16 8 -13 33 l3 32 80 0 c61 0 92 -5 132 -22 57 -25 107 -30 122 -10 6 6 21
25 34 41 15 19 29 27 40 23 8 -3 39 -41 68 -83 71 -105 119 -156 194 -203 35
-22 71 -51 79 -63 14 -20 25 -23 79 -23 34 -1 115 -5 181 -10 104 -7 122 -11
147 -33 24 -20 32 -22 44 -12 8 7 30 16 48 19 41 9 52 30 117 241 29 91 55
168 59 173 4 4 78 11 164 16 177 10 212 21 291 95 l46 42 -1 185 c0 101 -4
220 -8 263 -6 74 -9 81 -41 108 -67 57 -84 61 -260 69 -91 4 -230 12 -310 18
-80 5 -225 13 -323 17 -177 6 -179 6 -243 40 -78 41 -215 84 -386 123 l-128
28 -69 66 c-212 200 -422 280 -801 307 -418 29 -878 -6 -1255 -95 -59 -14
-110 -23 -115 -20 -4 3 -18 24 -30 47 -12 24 -47 74 -79 112 -89 111 -91 114
-91 186 0 78 0 78 -152 248 -60 66 -108 125 -108 130 0 5 8 16 18 26 18 15 26
13 143 -43 68 -32 176 -79 239 -104 63 -25 154 -64 202 -86 102 -49 137 -57
161 -39 15 11 16 17 5 45 -21 56 30 136 118 184 23 12 36 34 63 107 19 51 44
127 56 170 18 62 27 78 44 80 13 2 23 13 28 29 5 21 1 31 -20 48 -34 26 -34
32 3 105 36 71 38 104 8 124 -43 28 -324 144 -598 246 -151 57 -329 127 -395
156 -145 64 -198 76 -214 46z m-276 -802 c17 -11 50 -30 74 -42 l44 -21 -7
-61 c-5 -50 -11 -66 -36 -89 -35 -33 -45 -50 -106 -194 -58 -135 -58 -136 -93
-118 -55 28 -55 33 -6 164 52 139 75 237 75 322 0 66 7 71 55 39z m-1252
-1240 c53 -19 60 -19 148 -4 96 17 144 15 267 -7 59 -11 82 -11 130 0 139 31
246 19 305 -37 32 -31 34 -43 7 -67 -18 -16 -18 -19 -3 -41 9 -14 14 -26 12
-29 -5 -4 -381 20 -484 31 -87 9 -172 28 -327 72 -138 40 -218 76 -226 101 -6
19 95 8 171 -19z m2367 -1470 c13 -101 13 -430 0 -410 -5 8 -10 25 -10 38 0
19 -5 22 -39 22 -32 0 -40 4 -45 23 -10 37 -7 46 19 69 25 21 25 24 25 168 0
97 -4 150 -12 158 -8 8 -8 15 2 27 24 29 49 -10 60 -95z m-192 -307 c3 -28 0
-33 -17 -33 -21 0 -41 27 -41 55 0 12 7 15 28 13 22 -2 28 -8 30 -35z m-1
-1129 c8 -22 -16 -96 -30 -91 -14 4 -31 72 -23 92 7 20 45 19 53 -1z m109
-190 c41 -11 58 -86 25 -104 -31 -16 -51 -12 -51 11 0 13 -11 25 -34 34 -87
36 -36 85 60 59z m-1594 -145 c23 -10 109 -121 163 -209 15 -25 73 -105 128
-179 99 -131 101 -135 105 -195 2 -34 -1 -73 -6 -87 l-10 -26 -457 -2 c-435
-2 -1257 12 -1545 28 -74 4 -145 5 -157 3 -11 -2 -47 -26 -80 -54 -99 -85 -83
-81 -371 -73 l-254 7 -10 30 c-11 31 -41 48 -84 48 -21 0 -24 4 -19 20 5 16 2
20 -14 20 -22 0 -29 24 -11 35 6 3 10 22 10 42 l0 35 29 -31 c16 -17 39 -31
50 -31 80 0 277 86 429 188 131 89 187 117 299 151 l101 31 444 0 c244 0 480
-5 525 -10 187 -24 333 -79 439 -168 86 -71 162 -118 248 -152 93 -38 113 -38
127 -3 6 16 17 35 24 43 12 13 12 21 0 55 -8 22 -14 51 -15 65 0 29 -23 108
-41 142 -6 13 -31 43 -55 68 -24 25 -50 62 -59 82 -10 26 -33 50 -74 78 -33
22 -63 44 -66 50 -9 14 177 13 207 -1z m1638 -53 c-35 -94 -85 -166 -114 -166
-12 0 -6 57 8 75 10 15 11 25 4 39 -8 15 -7 22 4 30 8 6 17 19 21 29 5 12 17
17 46 17 39 0 40 -1 31 -24z m-6432 -388 c48 -21 51 -36 23 -91 -35 -69 -46
-169 -46 -412 0 -183 4 -245 18 -302 21 -88 22 -202 2 -397 -8 -82 -19 -257
-25 -389 -5 -132 -13 -244 -17 -248 -4 -4 -98 -28 -208 -53 -110 -25 -225 -53
-256 -61 -99 -27 -93 -35 -85 123 3 75 11 205 16 287 5 83 10 242 10 355 1
511 45 772 167 979 70 118 178 208 277 231 37 9 65 3 124 -22z m344 -33 c47
-4 94 -4 105 0 13 5 246 10 306 6 4 -1 7 -10 7 -20 0 -11 5 -23 10 -26 6 -3
10 -31 10 -61 0 -65 20 -118 51 -135 16 -8 99 -12 273 -14 212 -2 254 0 274
13 19 13 25 13 32 2 11 -18 111 -25 150 -11 27 9 31 8 28 -6 -2 -9 -17 -20
-34 -25 -18 -4 -35 -16 -39 -26 -4 -9 -9 -63 -12 -119 l-6 -102 36 -36 c28
-28 43 -35 73 -35 22 0 219 -7 439 -15 220 -8 493 -15 608 -15 159 0 207 -3
207 -12 0 -7 -26 -35 -56 -62 -57 -50 -104 -128 -104 -173 0 -14 -34 -54 -97
-116 -83 -81 -96 -99 -96 -127 0 -31 21 -59 56 -74 24 -10 -25 -35 -142 -72
-168 -53 -780 -199 -1226 -293 -124 -26 -142 -27 -156 -14 -10 8 -41 20 -69
28 -37 10 -61 24 -80 47 -26 31 -32 33 -88 33 -79 0 -106 -21 -97 -77 4 -23 3
-38 -3 -38 -22 0 -66 22 -95 46 -28 23 -37 26 -83 20 -83 -10 -85 -12 -79 -65
3 -25 2 -59 -3 -76 -10 -36 -22 -41 -237 -91 -88 -20 -166 -39 -172 -41 -18
-7 -17 153 3 416 15 188 16 244 4 460 -29 563 -26 650 31 828 l29 91 78 -2
c42 -2 116 -7 164 -11z"/>
</g>
</svg>
