<?xml version="1.0" standalone="no"?>
<!DOCTYPE svg PUBLIC "-//W3C//DTD SVG 20010904//EN"
 "http://www.w3.org/TR/2001/REC-SVG-20010904/DTD/svg10.dtd">
<svg version="1.0" xmlns="http://www.w3.org/2000/svg"
 width="1048.000000pt" height="1280.000000pt" viewBox="0 0 1048.000000 1280.000000"
 preserveAspectRatio="xMidYMid meet">
<metadata>
Created by potrace 1.15, written by Peter Selinger 2001-2017
</metadata>
<g transform="translate(0.000000,1280.000000) scale(0.100000,-0.100000)"
fill="#000000" stroke="none">
<path d="M8226 12459 c4 -7 0 -9 -14 -5 -26 9 -214 -62 -205 -77 3 -6 1 -7 -6
-3 -14 9 -53 -2 -46 -14 3 -4 -5 -6 -17 -2 -14 3 -19 1 -14 -6 8 -13 -59 -36
-75 -26 -7 4 -9 3 -5 -4 8 -13 -29 -26 -45 -16 -7 4 -9 3 -6 -3 7 -11 -22 -28
-31 -18 -3 3 1 5 8 5 7 0 11 2 8 5 -9 10 -58 -17 -51 -28 4 -6 1 -7 -6 -2 -17
10 -152 -45 -144 -58 3 -6 1 -7 -5 -3 -14 9 -643 -244 -636 -256 3 -4 -3 -5
-12 -1 -12 4 -15 3 -10 -5 4 -7 2 -10 -7 -6 -12 4 -173 -61 -837 -338 -513
-214 -1079 -455 -1805 -767 -308 -133 -566 -241 -572 -241 -7 0 -131 -50 -275
-110 -145 -61 -356 -149 -470 -197 -116 -48 -204 -91 -201 -96 3 -6 1 -7 -6
-3 -16 10 -142 -44 -134 -57 3 -6 1 -7 -6 -3 -16 10 -53 -3 -45 -16 4 -7 2 -8
-5 -4 -16 10 -192 -64 -184 -77 3 -6 1 -7 -6 -3 -10 6 -356 -135 -1536 -629
-342 -143 -415 -176 -410 -185 3 -4 -55 -34 -129 -67 -123 -54 -133 -61 -123
-79 9 -17 9 -18 -6 -5 -15 12 -17 11 -17 -8 0 -12 27 -304 60 -649 32 -345 64
-679 69 -742 6 -63 15 -162 21 -220 6 -58 15 -152 20 -210 5 -58 15 -152 20
-210 26 -271 394 -4139 505 -5310 68 -723 129 -1338 135 -1366 14 -65 57 -117
116 -140 42 -16 58 -16 178 -5 72 6 1173 111 2446 231 1273 121 3193 304 4265
405 1073 102 1967 190 1988 196 46 12 110 68 127 109 7 16 16 28 20 25 4 -2
16 6 27 18 62 68 73 155 49 407 -17 179 -30 316 -66 685 -11 116 -60 640 -110
1165 -111 1174 -128 1348 -140 1475 -6 55 -35 363 -65 685 -30 322 -62 653
-70 735 -13 135 -125 1315 -176 1855 -43 467 -55 517 -145 599 -69 63 -150 91
-264 91 -67 0 -408 -32 -745 -70 -49 -6 -218 -24 -375 -40 -157 -17 -368 -39
-470 -50 -199 -22 -438 -46 -1675 -170 -923 -92 -985 -98 -1475 -145 -201 -19
-386 -37 -412 -40 -27 -3 -69 -7 -95 -10 -27 -3 -145 -14 -263 -26 -118 -11
-258 -24 -310 -29 -925 -90 -1018 -97 -1124 -85 -47 5 -74 13 -88 27 -19 19
-19 20 -2 39 18 20 17 20 -10 10 -50 -20 -42 -10 14 15 51 24 720 301 2150
892 785 325 2861 1182 3665 1514 347 143 677 280 735 304 l106 44 38 114 38
113 -58 114 c-31 63 -58 125 -60 139 -1 14 -28 93 -59 175 -31 83 -93 247
-137 365 -112 301 -134 340 -202 371 -45 20 -81 25 -71 9 4 -7 -3 -7 -20 0
-19 7 -24 7 -19 -1z m-1376 -553 c0 -2 -7 -7 -16 -10 -8 -3 -12 -2 -9 4 6 10
25 14 25 6z m1880 -361 c0 -5 -5 -3 -10 5 -5 8 -10 20 -10 25 0 6 5 3 10 -5 5
-8 10 -19 10 -25z m-6010 -1375 c-8 -5 -19 -10 -25 -10 -5 0 -3 5 5 10 8 5 20
10 25 10 6 0 3 -5 -5 -10z m-70 -30 c-8 -5 -19 -10 -25 -10 -5 0 -3 5 5 10 8
5 20 10 25 10 6 0 3 -5 -5 -10z m-140 -60 c-8 -5 -19 -10 -25 -10 -5 0 -3 5 5
10 8 5 20 10 25 10 6 0 3 -5 -5 -10z"/>
</g>
</svg>
