<?xml version="1.0" encoding="UTF-8"?>
<svg xmlns="http://www.w3.org/2000/svg" xmlns:figma="http://www.figma.com/figma/ns" xmlns:xlink="http://www.w3.org/1999/xlink" 
viewBox="0 0 1100 1000">
   <title>Logo</title>
   <g transform="translate(0.000000,200.000000) scale(0.100000,-0.100000)" figma:type="canvas">
      <g style="mix-blend-mode:normal" figma:type="vector" transform="translate(-50)">
         <use xlink:href="#N" fill="#FF0800"/>
         <use xlink:href="#A" fill="#ED9121"/>
         <use xlink:href="#N2" fill="#FFEF00"/>
         <use xlink:href="#J" fill="#8DB600"/>
         <use xlink:href="#A2" fill="#0000FF"/>
         <use xlink:href="#L" fill="#6F00FF"/>
         <use xlink:href="#A3" fill="#8F00FF"/>
</g>
<path id="N" d="M142 1892 c1 -4 246 -409 543 -900 l540 -891 318 -1 c175 0 317 4 315 8 -3 7 -358 591 -894 1472 l-192 315 -317 3 c-174 1 -315 -1 -313 -6z m599 -19 c9 -3 38 -41 65 -85 27 -44 92 -150 144 -236 53 -86 115 -188 139 -227 24 -38 97 -160 163 -270 67 -110 140 -230 164 -267 24 -37 44 -70 44 -72 0 -3 13 -24 29 -48 15 -24 41 -65 56 -93 15 -27 35 -61 45 -75 10 -14 27 -41 38 -60 11 -19 56 -95 101 -169 45 -74 79 -136 77 -138 -7 -8 -560 -3 -567 4 -8 8 -362 588 -433 708 -22 39 -106 177 -186 308 -80 131 -153 252 -164 270 -30 52 -216 359 -243 401 -20 31 -22 40 -11 47 13 8 507 10 539 2z M1340 1517 l0 -383 254 -419 c140 -231 258 -426 263 -433 4 -8 8 354 8 802 l0 816 -262 0 -263 0 0 -383z m479 356 c15 -4 16 -65 16 -748 0 -558 -3 -741 -11 -732 -10 10 -149 237 -241 392 -13 22 -66 110 -118 195 l-95 155 0 367 0 367 33 4 c42 6 394 6 416 0z M135 916 l0 -816 263 0 262 0 0 385 0 385 -254 417 c-140 230 -259 424 -263 431 -4 8 -8 -354 -8 -802z m77 637 c24 -38 84 -135 133 -216 50 -82 134 -221 188 -309 l97 -161 0 -369 0 -368 -230 0 -230 0 -2 745 c-2 410 -2 745 -1 745 1 0 22 -30 45 -67z" />
<path id="A" d="M2734 1801 c3 -4 98 -248 211 -541 114 -294 211 -542 216 -552 9 -17 1 -18 -138 -18 l-149 0 -55 -158 -55 -157 264 -5 264 -5 32 -85 33 -85 272 -3 c156 -1 271 1 269 7 -1 4 -147 369 -322 810 l-320 801 -264 0 c-145 0 -261 -4 -258 -9z m732 -591 c124 -311 233 -585 244 -610 51 -121 140 -351 140 -364 0 -12 -36 -15 -227 -15 -126 -1 -234 3 -240 7 -7 4 -25 37 -39 73 -43 106 -22 99 -296 99 -184 0 -238 3 -238 13 0 6 19 65 41 130 l42 117 112 0 c128 0 171 6 179 26 3 7 -3 35 -14 61 -10 26 -48 125 -84 218 -35 94 -90 235 -121 315 -31 80 -70 181 -87 225 -16 44 -45 118 -64 165 -19 47 -34 91 -34 98 0 10 52 12 231 10 l230 -3 225 -565z M2390 968 c-157 -418 -286 -765 -288 -769 -2 -5 113 -9 256 -9 l260 0 135 412 c74 227 141 431 147 454 12 40 9 49 -104 355 -65 172 -118 315 -119 316 -2 1 -131 -340 -287 -759z m320 597 c17 -44 56 -147 86 -230 30 -82 61 -165 69 -183 8 -18 15 -43 15 -56 0 -12 -45 -159 -100 -327 -55 -167 -117 -356 -137 -419 -21 -63 -42 -118 -48 -122 -5 -4 -107 -7 -227 -8 -204 0 -218 1 -218 18 0 10 27 90 61 177 33 88 86 228 116 310 31 83 59 152 64 153 5 2 7 7 5 11 -3 4 12 54 34 112 125 338 162 434 171 437 5 2 7 7 4 12 -5 7 66 203 71 197 2 -1 17 -38 34 -82z" />
<path id="N2" d="M4142 1892 c1 -4 246 -409 543 -900 l540 -891 318 -1 c175 0 317 4 315 8 -3 7 -358 591 -894 1472 l-192 315 -317 3 c-174 1 -315 -1 -313 -6z
m599 -19 c9 -3 38 -41 65 -85 27 -44 92 -150 144 -236 53 -86 115 -188 139 -227 24 -38 97 -160 163 -270 67 -110 140 -230 164 -267 24 -37 44 -70 44 -72 0 -3 13 -24 29 -48 15 -24 41 -65 56 -93 15 -27 35 -61 45 -75 10 -14 27 -41 38 -60 11 -19 56 -95 101 -169 45 -74 79 -136 77 -138 -7 -8 -560 -3 -567 4 -8 8 -362 588 -433 708 -22 39 -106 177 -186 308 -80 131 -153 252 -164 270 -30 52 -216 359 -243 401 -20 31 -22 40 -11 47 13 8 507 10 539 2z
M5340 1517 l0 -383 254 -419 c140 -231 258 -426 263 -433 4 -8 8 354 8 802 l0 816 -262 0 -263 0 0 -383z
m479 356 c15 -4 16 -65 16 -748 0 -558 -3 -741 -11 -732 -10 10 -149 237 -241 392 -13 22 -66 110 -118 195 l-95 155 0 367 0 367 33 4 c42 6 394 6 416 0z
M4135 916 l0 -816 263 0 262 0 0 385 0 385 -254 417 c-140 230 -259 424 -263 431 -4 8 -8 -354 -8 -802z 
m77 637 c24 -38 84 -135 133 -216 50 -82 134 -221 188 -309 l97 -161 0 -369 0 -368 -230 0 -230 0 -2 745 c-2 410 -2 745 -1 745 1 0 22 -30 45 -67z" />
<path id="J" d="M6395 1705 l0 -195 413 0 412 0 0 -705 0 -705 123 0 122 0 178 178 177 177 0 723 0 722 -712 0 -713 0 0 -195z
m1390 163 c3 -3 5 -319 5 -704 l0 -699 -167 -167 -168 -168 -102 0 -103 0 0 687 c0 625 -1 688 -17 705 -15 17 -41 18 -409 18 l-393 0 -3 157 c-2 102 1 160 8 167 10 11 1339 15 1349 4z 
M6180 655 l0 -200 178 -178 177 -177 298 0 297 0 0 180 0 180 -165 0 -165 0 0 198 0 197 -310 0 -310 0 0 -200z 
m590 -7 c0 -155 2 -184 17 -200 14 -16 33 -18 165 -18 l148 0 0 -150 0 -150 -277 0 -278 0 -167 167 -168 168 0 182 0 183 280 0 280 0 0 -182z" />
<path id="A2" d="M8734 1801 c3 -4 98 -248 211 -541 114 -294 211 -542 216 -552 9 -17 1 -18 -138 -18 l-149 0 -55 -158 -55 -157 264 -5 264 -5 32 -85 33 -85 272 -3 c156 -1 271 1 269 7 -1 4 -147 369 -322 810 l-320 801 -264 0 c-145 0 -261 -4 -258 -9z 
m732 -591 c124 -311 233 -585 244 -610 51 -121 140 -351 140 -364 0 -12 -36 -15 -227 -15 -126 -1 -234 3 -240 7 -7 4 -25 37 -39 73 -43 106 -22 99 -296 99 -184 0 -238 3 -238 13 0 6 19 65 41 130 l42 117 112 0 c128 0 171 6 179 26 3 7 -3 35 -14 61 -10 26 -48 125 -84 218 -35 94 -90 235 -121 315 -31 80 -70 181 -87 225 -16 44 -45 118 -64 165 -19 47 -34 91 -34 98 0 10 52 12 231 10 l230 -3 225 -565z 
M8390 968 c-157 -418 -286 -765 -288 -769 -2 -5 113 -9 256 -9 l260 0 135 412 c74 227 141 431 147 454 12 40 9 49 -104 355 -65 172 -118 315 -119 316 -2 1 -131 -340 -287 -759z 
m320 597 c17 -44 56 -147 86 -230 30 -82 61 -165 69 -183 8 -18 15 -43 15 -56 0 -12 -45 -159 -100 -327 -55 -167 -117 -356 -137 -419 -21 -63 -42 -118 -48 -122 -5 -4 -107 -7 -227 -8 -204 0 -218 1 -218 18 0 10 27 90 61 177 33 88 86 228 116 310 31 83 59 152 64 153 5 2 7 7 5 11 -3 4 12 54 34 112 125 338 162 434 171 437 5 2 7 7 4 12 -5 7 66 203 71 197 2 -1 17 -38 34 -82z" />
<path id="L" d=" M10230 1000 l0 -900 300 0 300 0 0 900 0 900 -300 0 -300 0 0 -900z 
m468 871 l102 -1 0 -870 0 -869 -253 -3 c-140 -2 -261 -2 -270 0 -15 3 -16 80 -17 872 0 822 1 869 17 873 10 3 86 4 168 2 83 -2 196 -4 253 -4z 
M11222 575 l3 -115 -147 0 -147 0 -3 -180 -3 -180 423 0 422 0 0 295 0 295 -276 0 -275 0 3 -115z m421 76 l87 -1 0 -260 0 -260 -384 0 -385 0 -3 52 c-2 29 -2 97 0 151 l3 97 127 0 c90 1 132 5 145 14 14 11 17 29 17 108 0 52 3 98 7 102 4 3 72 4 152 2 80 -2 185 -5 234 -5z" />
<path id="A3" d="M12734 1801 c3 -4 98 -248 211 -541 114 -294 211 -542 216 -552 9 -17 1 -18 -138 -18 l-149 0 -55 -158 -55 -157 264 -5 264 -5 32 -85 33 -85 272 -3 c156 -1 271 1 269 7 -1 4 -147 369 -322 810 l-320 801 -264 0 c-145 0 -261 -4 -258 -9z 
m732 -591 c124 -311 233 -585 244 -610 51 -121 140 -351 140 -364 0 -12 -36 -15 -227 -15 -126 -1 -234 3 -240 7 -7 4 -25 37 -39 73 -43 106 -22 99 -296 99 -184 0 -238 3 -238 13 0 6 19 65 41 130 l42 117 112 0 c128 0 171 6 179 26 3 7 -3 35 -14 61 -10 26 -48 125 -84 218 -35 94 -90 235 -121 315 -31 80 -70 181 -87 225 -16 44 -45 118 -64 165 -19 47 -34 91 -34 98 0 10 52 12 231 10 l230 -3 225 -565z 
M12390 968 c-157 -418 -286 -765 -288 -769 -2 -5 113 -9 256 -9 l260 0 135 412 c74 227 141 431 147 454 12 40 9 49 -104 355 -65 172 -118 315 -119 316 -2 1 -131 -340 -287 -759z 
m320 597 c17 -44 56 -147 86 -230 30 -82 61 -165 69 -183 8 -18 15 -43 15 -56 0 -12 -45 -159 -100 -327 -55 -167 -117 -356 -137 -419 -21 -63 -42 -118 -48 -122 -5 -4 -107 -7 -227 -8 -204 0 -218 1 -218 18 0 10 27 90 61 177 33 88 86 228 116 310 31 83 59 152 64 153 5 2 7 7 5 11 -3 4 12 54 34 112 125 338 162 434 171 437 5 2 7 7 4 12 -5 7 66 203 71 197 2 -1 17 -38 34 -82z" /></g>
</svg>
