<?xml version="1.0" encoding="UTF-8"?>
<svg xmlns="http://www.w3.org/2000/svg" xmlns:figma="http://www.figma.com/figma/ns" xmlns:xlink="http://www.w3.org/1999/xlink" 
viewBox="0 0 900 800">
   <title>Logo</title>
   <g transform="translate(0.000000,200.000000) scale(0.100000,-0.100000)" figma:type="canvas">
      <g style="mix-blend-mode:normal" figma:type="vector" transform="translate(-50)">
         <use xlink:href="#s" fill="#FF0800"/>
         <use xlink:href="#u" fill="#FFEF00"/>
         <use xlink:href="#k" fill="#ED9121"/>
         <use xlink:href="#u2" fill="#8DB600"/>
         <use xlink:href="#m" fill="#0000FF"/>
         <use xlink:href="#u3" fill="#6F00FF"/>
</g>
<path id="s" d="M10 1889 c-118 -19 -219 -72 -289 -149 -77 -85 -96 -170 -96 -419 0
-312 36 -398 200 -481 76 -39 139 -52 385 -85 183 -24 202 -29 223 -51 28 -31
28 -73 1 -108 l-20 -26 -369 0 c-347 0 -369 -1 -391 -19 -24 -19 -24 -21 -24
-216 0 -196 0 -197 24 -216 24 -20 39 -20 510 -16 521 4 527 4 638 58 59 28
137 99 168 154 47 79 57 159 53 395 -5 251 -18 300 -93 376 -87 86 -167 113
-468 154 -119 16 -225 34 -236 39 -35 19 -43 85 -13 120 17 20 26 21 349 23
303 3 334 5 350 21 16 15 18 41 21 212 l3 195 -25 25 -25 25 -413 -1 c-227 -1
-435 -5 -463 -10z m869 -29 l26 -10 0 -189 c0 -178 -1 -191 -19 -201 -13 -6
-138 -10 -338 -10 l-319 0 -26 -27 c-34 -38 -40 -59 -28 -104 16 -57 45 -74
152 -88 385 -51 440 -63 523 -116 64 -41 89 -68 117 -130 21 -47 23 -65 26
-277 3 -184 1 -238 -13 -289 -37 -145 -137 -234 -310 -274 -87 -20 -983 -23
-1003 -3 -8 8 -12 66 -12 195 0 170 1 183 19 193 13 6 151 10 381 10 l362 0
29 31 c23 25 29 40 29 78 0 56 -19 86 -63 100 -17 5 -102 19 -187 31 -85 11
-190 27 -232 35 -157 29 -260 95 -307 194 -25 55 -26 62 -29 287 -3 163 0 244
9 275 7 24 13 50 15 57 6 29 57 103 91 131 50 41 133 79 207 96 75 16 859 21
900 5z"/>
<path id="u" d="M1010 1881 l-24 -19 0 -679 c0 -620 2 -684 18 -743 47 -170 177 -267
422 -316 128 -26 501 -26 629 -1 241 49 368 140 419 301 22 71 22 76 22 754
l0 684 -24 19 c-21 17 -42 19 -248 19 l-224 0 -24 -25 -25 -24 0 -588 c0 -632
1 -617 -53 -657 -25 -19 -42 -21 -151 -21 -101 0 -127 3 -150 18 -56 37 -56
34 -56 670 0 488 -2 586 -14 603 -13 18 -30 19 -253 22 -226 3 -241 2 -264
-17z m487 -19 c8 -5 13 -176 16 -603 4 -561 5 -598 23 -625 44 -67 102 -88
232 -82 113 4 159 25 190 87 22 44 22 45 23 622 0 318 3 585 6 594 5 13 38 15
234 15 170 0 230 -3 237 -12 14 -20 8 -1363 -7 -1418 -38 -144 -160 -235 -376
-283 -84 -18 -132 -21 -319 -22 -248 0 -304 5 -425 42 -104 31 -142 50 -198
98 -56 49 -89 108 -107 191 -20 92 -22 1373 -3 1392 13 13 454 17 474 4z"/>
<path id="k" d="M2510 1876 l-25 -25 0 -851 0 -851 25 -24 24 -25 234 0 c216 0 237 2
258 19 l24 19 0 311 0 311 186 0 c176 0 187 -1 205 -21 18 -19 19 -44 24 -314
3 -161 7 -295 10 -298 26 -23 67 -27 275 -27 l226 0 24 25 25 24 0 405 c0 369
-2 409 -19 465 -34 111 -126 191 -238 208 l-49 8 133 304 c73 167 133 310 133
317 0 7 -7 20 -16 28 -13 14 -49 16 -242 16 -196 0 -232 -2 -262 -18 -33 -16
-43 -36 -175 -335 l-140 -318 -48 3 -47 3 -3 312 c-2 284 -4 314 -20 330 -16
16 -43 18 -257 21 l-240 3 -25 -25z m495 -16 c13 -8 15 -55 17 -315 1 -224 4
-309 13 -320 19 -22 112 -20 133 3 9 10 75 150 146 311 72 161 138 302 147
312 16 18 35 19 250 19 128 0 235 -4 238 -9 8 -12 -10 -61 -98 -260 -162 -367
-160 -360 -140 -382 10 -11 30 -19 49 -19 17 0 58 -13 91 -30 65 -32 114 -93
133 -165 16 -59 15 -847 -1 -863 -13 -13 -454 -17 -474 -4 -7 5 -13 103 -18
291 -7 306 -11 326 -63 350 -14 7 -96 11 -203 11 -174 0 -180 -1 -191 -22 -8
-15 -12 -110 -11 -315 0 -245 -2 -296 -15 -308 -12 -12 -55 -15 -242 -15 -163
0 -230 3 -239 12 -17 17 -17 1699 0 1716 15 15 455 17 478 2z"/>
<path id="u2" d="M4010 1881 l-24 -19 0 -679 c0 -620 2 -684 18 -743 47 -170 177 -267
422 -316 128 -26 501 -26 629 -1 241 49 368 140 419 301 22 71 22 76 22 754
l0 684 -24 19 c-21 17 -42 19 -248 19 l-224 0 -24 -25 -25 -24 0 -588 c0 -632
1 -617 -53 -657 -25 -19 -42 -21 -151 -21 -101 0 -127 3 -150 18 -56 37 -56
34 -56 670 0 488 -2 586 -14 603 -13 18 -30 19 -253 22 -226 3 -241 2 -264
-17z m487 -19 c8 -5 13 -176 16 -603 4 -561 5 -598 23 -625 44 -67 102 -88
232 -82 113 4 159 25 190 87 22 44 22 45 23 622 0 318 3 585 6 594 5 13 38 15
234 15 170 0 230 -3 237 -12 14 -20 8 -1363 -7 -1418 -38 -144 -160 -235 -376
-283 -84 -18 -132 -21 -319 -22 -248 0 -304 5 -425 42 -104 31 -142 50 -198
98 -56 49 -89 108 -107 191 -20 92 -22 1373 -3 1392 13 13 454 17 474 4z"/>
<path id="m" d="M5510 1881 l-24 -19 0 -862 0 -862 24 -19 c21 -17 42 -19 252 -19 216
0 230 1 249 20 19 19 20 33 20 488 l0 467 33 -60 c172 -314 153 -295 302 -295
139 0 141 1 244 193 46 87 84 157 85 157 0 0 0 -195 -2 -432 -2 -238 0 -448 3
-466 3 -18 15 -42 26 -53 18 -18 35 -19 254 -19 l236 0 24 25 25 24 0 851 0
851 -25 25 -25 25 -249 -3 c-245 -3 -250 -3 -274 -26 -14 -13 -82 -129 -153
-258 -77 -141 -135 -236 -146 -240 -10 -3 -26 -3 -36 0 -11 4 -71 102 -149
244 -98 178 -139 243 -163 260 -32 21 -41 22 -270 22 -219 0 -240 -1 -261 -19z
m1709 -25 c9 -5 12 -218 12 -856 0 -829 0 -850 -19 -860 -25 -13 -450 -13
-471 0 -13 8 -15 72 -18 461 -3 471 -6 503 -43 476 -9 -7 -51 -75 -93 -152
-43 -77 -86 -148 -96 -157 -26 -24 -214 -26 -247 -3 -12 9 -56 78 -98 154 -41
76 -83 146 -94 155 -41 37 -43 14 -49 -467 -3 -278 -8 -457 -14 -465 -13 -15
-429 -17 -459 -2 -19 10 -19 31 -19 861 l0 849 26 10 c14 6 126 10 249 10 269
0 245 12 344 -170 37 -69 91 -168 120 -220 54 -100 89 -140 121 -140 37 0 70
47 186 260 64 118 128 227 142 242 l25 28 206 2 c199 3 265 -1 289 -16z"/>
<path id="u3" d="M7260 1881 l-24 -19 0 -679 c0 -620 2 -684 18 -743 47 -170 177 -267
422 -316 128 -26 501 -26 629 -1 241 49 368 140 419 301 22 71 22 76 22 754
l0 684 -24 19 c-21 17 -42 19 -248 19 l-224 0 -24 -25 -25 -24 0 -588 c0 -632
1 -617 -53 -657 -25 -19 -42 -21 -151 -21 -101 0 -127 3 -150 18 -56 37 -56
34 -56 670 0 488 -2 586 -14 603 -13 18 -30 19 -253 22 -226 3 -241 2 -264
-17z m487 -19 c8 -5 13 -176 16 -603 4 -561 5 -598 23 -625 44 -67 102 -88
232 -82 113 4 159 25 190 87 22 44 22 45 23 622 0 318 3 585 6 594 5 13 38 15
234 15 170 0 230 -3 237 -12 14 -20 8 -1363 -7 -1418 -38 -144 -160 -235 -376
-283 -84 -18 -132 -21 -319 -22 -248 0 -304 5 -425 42 -104 31 -142 50 -198
98 -56 49 -89 108 -107 191 -20 92 -22 1373 -3 1392 13 13 454 17 474 4z"/>
</g>
</svg>
